<svg xmlns="http://www.w3.org/2000/svg" xmlns:xlink="http://www.w3.org/1999/xlink" width="22.216" height="17.393" viewBox="0 0 22.216 17.393">
  <defs>
    <clipPath id="clip-path">
      <rect width="22.216" height="17.393" fill="none"/>
    </clipPath>
  </defs>
  <g id="archive" clip-path="url(#clip-path)">
    <g id="Path_110" data-name="Path 110" transform="translate(0 1.11)" fill="#fff">
      <path d="M 5.387718200683594 15.78307628631592 L 0.5986383557319641 15.78307628631592 C 0.5740883946418762 15.78307628631592 0.4999983608722687 15.70932674407959 0.4999983608722687 15.57511711120605 L 0.4999983608722687 0.7079567313194275 C 0.4999983608722687 0.5737467408180237 0.5740883946418762 0.4999967217445374 0.5986383557319641 0.4999967217445374 L 5.387718200683594 0.4999967217445374 C 5.412268161773682 0.4999967217445374 5.486358165740967 0.5737467408180237 5.486358165740967 0.7079567313194275 L 5.486358165740967 15.57511711120605 C 5.486358165740967 15.70932674407959 5.412268161773682 15.78307628631592 5.387718200683594 15.78307628631592 Z" stroke="none"/>
      <path d="M 0.9999985694885254 0.9999971389770508 L 0.9999985694885254 15.28307628631592 L 4.986358165740967 15.28307628631592 L 4.986358165740967 0.9999971389770508 L 0.9999985694885254 0.9999971389770508 M 0.5986385345458984 -3.814697265625e-06 L 5.387718200683594 -3.814697265625e-06 C 5.718338489532471 -3.814697265625e-06 5.986358165740967 0.3169670104980469 5.986358165740967 0.7079563140869141 L 5.986358165740967 15.57511711120605 C 5.986358165740967 15.96610641479492 5.718338489532471 16.28307723999023 5.387718200683594 16.28307723999023 L 0.5986385345458984 16.28307723999023 C 0.2680182456970215 16.28307723999023 -1.430511474609375e-06 15.96610641479492 -1.430511474609375e-06 15.57511711120605 L -1.430511474609375e-06 0.7079563140869141 C -1.430511474609375e-06 0.3169670104980469 0.2680182456970215 -3.814697265625e-06 0.5986385345458984 -3.814697265625e-06 Z" stroke="none" fill="#fff"/>
    </g>
    <g id="Ellipse_33" data-name="Ellipse 33" transform="translate(1.942 13.853)" fill="#707070" stroke="#707070" stroke-width="1">
      <circle cx="1" cy="1" r="1" stroke="none"/>
      <circle cx="1" cy="1" r="0.5" fill="none"/>
    </g>
    <g id="Path_110-2" data-name="Path 110" transform="translate(7.12 1.11)" fill="#fff">
      <path d="M 5.387718200683594 15.78307628631592 L 0.5986383557319641 15.78307628631592 C 0.5740883946418762 15.78307628631592 0.4999983608722687 15.70932674407959 0.4999983608722687 15.57511711120605 L 0.4999983608722687 0.7079567313194275 C 0.4999983608722687 0.5737467408180237 0.5740883946418762 0.4999967217445374 0.5986383557319641 0.4999967217445374 L 5.387718200683594 0.4999967217445374 C 5.412268161773682 0.4999967217445374 5.486358165740967 0.5737467408180237 5.486358165740967 0.7079567313194275 L 5.486358165740967 15.57511711120605 C 5.486358165740967 15.70932674407959 5.412268161773682 15.78307628631592 5.387718200683594 15.78307628631592 Z" stroke="none"/>
      <path d="M 0.9999985694885254 0.9999971389770508 L 0.9999985694885254 15.28307628631592 L 4.986358165740967 15.28307628631592 L 4.986358165740967 0.9999971389770508 L 0.9999985694885254 0.9999971389770508 M 0.5986385345458984 -3.814697265625e-06 L 5.387718200683594 -3.814697265625e-06 C 5.718338489532471 -3.814697265625e-06 5.986358165740967 0.3169670104980469 5.986358165740967 0.7079563140869141 L 5.986358165740967 15.57511711120605 C 5.986358165740967 15.96610641479492 5.718338489532471 16.28307723999023 5.387718200683594 16.28307723999023 L 0.5986385345458984 16.28307723999023 C 0.2680182456970215 16.28307723999023 -1.430511474609375e-06 15.96610641479492 -1.430511474609375e-06 15.57511711120605 L -1.430511474609375e-06 0.7079563140869141 C -1.430511474609375e-06 0.3169670104980469 0.2680182456970215 -3.814697265625e-06 0.5986385345458984 -3.814697265625e-06 Z" stroke="none" fill="#fff"/>
    </g>
    <g id="Rectangle_3" data-name="Rectangle 3" transform="translate(8.414 2.526)" fill="none" stroke="#fff" stroke-width="1">
      <rect width="3.236" height="10.619" rx="1" stroke="none"/>
      <rect x="0.5" y="0.5" width="2.236" height="9.619" rx="0.5" fill="none"/>
    </g>
    <g id="Ellipse_33-2" data-name="Ellipse 33" transform="translate(9.061 13.853)" fill="#707070" stroke="#707070" stroke-width="1">
      <circle cx="1" cy="1" r="1" stroke="none"/>
      <circle cx="1" cy="1" r="0.5" fill="none"/>
    </g>
    <g id="Path_110-3" data-name="Path 110" transform="translate(13.759 1.014) rotate(-9)" fill="#fff">
      <path d="M 0.3769451379776001 15.74025821685791 L 0.3766451478004456 15.74025821685791 C 0.369745135307312 15.74025821685791 0.3584951460361481 15.73133754730225 0.3509551286697388 15.72369766235352 C 0.3224451541900635 15.69480800628662 0.2923851311206818 15.63376808166504 0.293515145778656 15.54906845092773 L 0.4905751347541809 0.7131180167198181 C 0.4924851357936859 0.5686280131340027 0.5780251622200012 0.4916880130767822 0.6072551608085632 0.4912680089473724 L 5.407325267791748 0.4218380153179169 C 5.414525032043457 0.4218380153179169 5.425785064697266 0.430757999420166 5.433325290679932 0.438398003578186 C 5.461825370788574 0.4672880172729492 5.491885185241699 0.528328001499176 5.490755081176758 0.6130279898643494 L 5.293694972991943 15.44897842407227 C 5.29178524017334 15.59346771240234 5.206244945526123 15.67040824890137 5.17701530456543 15.67082786560059 L 0.3769451379776001 15.74025821685791 Z" stroke="none"/>
      <path d="M 4.986533641815186 0.9279794692993164 L 0.9869909286499023 0.9858303070068359 L 0.797736644744873 15.23411655426025 L 4.797279357910156 15.17626571655273 L 4.986533641815186 0.9279794692993164 M 5.407626628875732 -0.07816696166992188 C 5.735481262207031 -0.07816696166992188 5.995865821838379 0.2324609756469727 5.990715026855469 0.6196775436401367 L 5.793654918670654 15.45561790466309 C 5.788475036621094 15.84579849243164 5.515635013580322 16.16597747802734 5.184255123138428 16.17077827453613 L 0.3841753005981445 16.24020767211914 C 0.3816671371459961 16.24024391174316 0.3791441917419434 16.24026298522949 0.3766436576843262 16.24026298522949 C 0.04878902435302734 16.24026298522949 -0.2115955352783203 15.9296350479126 -0.2064447402954102 15.54241752624512 L -0.009384632110595703 0.7064781188964844 C -0.004204750061035156 0.3162984848022461 0.2686352729797363 -0.003881454467773438 0.6000151634216309 -0.0086822509765625 L 5.400094985961914 -0.07811164855957031 C 5.402603149414063 -0.07814788818359375 5.405126094818115 -0.07816696166992188 5.407626628875732 -0.07816696166992188 Z" stroke="none" fill="#fff"/>
    </g>
    <g id="Path_112" data-name="Path 112" transform="translate(17.499 13.269) rotate(-9)" fill="#707070">
      <path d="M 0.9577999114990234 1.485828638076782 C 0.8284699320793152 1.485828638076782 0.7085599303245544 1.436438679695129 0.620159924030304 1.34674859046936 C 0.5316899418830872 1.256988644599915 0.4839999377727509 1.136098623275757 0.4858799278736115 1.006338596343994 C 0.4899799227714539 0.7231186628341675 0.7237199544906616 0.48963862657547 1.006929993629456 0.4858786463737488 L 1.013839960098267 0.4858286380767822 C 1.14316987991333 0.4858286380767822 1.263079881668091 0.5352186560630798 1.351479887962341 0.6249086260795593 C 1.439949989318848 0.7146686315536499 1.487639904022217 0.8355586528778076 1.485759973526001 0.9653186202049255 C 1.481669902801514 1.248538613319397 1.247929930686951 1.48201858997345 0.9647099375724792 1.48577868938446 L 0.9577999114990234 1.485828638076782 Z" stroke="none"/>
      <path d="M 1.013838529586792 -0.01417148113250732 C 1.559728145599365 -0.01417148113250732 1.993634581565857 0.4248251914978027 1.98570990562439 0.9725486636161804 C 1.977719902992249 1.524778604507446 1.523579955101013 1.978398680686951 0.9713599681854248 1.985738635063171 C 0.9668433666229248 1.985798716545105 0.9623028039932251 1.985828757286072 0.957801342010498 1.985828757286072 C 0.4119117259979248 1.985828757286072 -0.02199470996856689 1.546832084655762 -0.01407003402709961 0.999108612537384 C -0.006080031394958496 0.4468786716461182 0.4480599164962769 -0.00674140453338623 1.000279903411865 -0.01408135890960693 C 1.004796504974365 -0.01414144039154053 1.009337067604065 -0.01417148113250732 1.013838529586792 -0.01417148113250732 Z" stroke="none" fill="#707070"/>
    </g>
  </g>
</svg>
