<svg xmlns="http://www.w3.org/2000/svg" xmlns:xlink="http://www.w3.org/1999/xlink" width="15.31" height="15.31" viewBox="0 0 15.31 15.31">
  <defs>
    <clipPath id="clip-path">
      <rect width="15.31" height="15.31" fill="none"/>
    </clipPath>
  </defs>
  <g id="close-icon" transform="translate(0 0)" clip-path="url(#clip-path)">
    <g id="Union_4" data-name="Union 4" transform="translate(-0.414 -0.414)" fill="#fff">
      <path d="M 14.57438087463379 15.47444915771484 C 14.33397006988525 15.47444915771484 14.10779094696045 15.38077926635742 13.93751049041748 15.2106990814209 L 8.245870590209961 9.518839836120605 L 8.069090843200684 9.342049598693848 L 7.892310619354248 9.518839836120605 L 2.200560569763184 15.2108097076416 C 2.030680656433105 15.38084983825684 1.804700493812561 15.47444915771484 1.564160585403442 15.47444915771484 C 1.323620557785034 15.47444915771484 1.097640514373779 15.38084983825684 0.9278605580329895 15.21088981628418 C 0.5770805478096008 14.85976982116699 0.5770805478096008 14.28844928741455 0.9278505444526672 13.93732929229736 L 6.619470596313477 8.245939254760742 L 6.796250343322754 8.069169044494629 L 6.619480609893799 7.892389297485352 L 0.9277705550193787 2.200459480285645 C 0.5773705244064331 1.849699378013611 0.5773705244064331 1.278849482536316 0.9278505444526672 0.9280194044113159 C 1.097640514373779 0.7580494284629822 1.323620557785034 0.6644494533538818 1.564160585403442 0.6644494533538818 C 1.804700493812561 0.6644494533538818 2.030680656433105 0.7580594420433044 2.200470447540283 0.9280194044113159 L 7.89232063293457 6.619619369506836 L 8.069090843200684 6.796389579772949 L 8.24586009979248 6.619619369506836 L 13.9376106262207 0.9281094074249268 C 14.10779094696045 0.7581194043159485 14.33397006988525 0.6644494533538818 14.57438087463379 0.6644494533538818 C 14.81469058990479 0.6644494533538818 15.04054069519043 0.7580494284629822 15.21032047271729 0.9280194044113159 C 15.38071060180664 1.098209381103516 15.47445011138916 1.32409942150116 15.47445011138916 1.564269423484802 C 15.47445011138916 1.804439425468445 15.3807201385498 2.030339479446411 15.21051025390625 2.2003493309021 L 9.51870059967041 7.892389297485352 L 9.341930389404297 8.069169044494629 L 9.518710136413574 8.245939254760742 L 15.21042060852051 13.93741989135742 C 15.38071060180664 14.10751914978027 15.47445011138916 14.33359909057617 15.47445011138916 14.57409954071045 C 15.47445011138916 14.81460952758789 15.3807201385498 15.04068946838379 15.21051025390625 15.2106990814209 C 15.04053020477295 15.38084983825684 14.8146800994873 15.47444915771484 14.57438087463379 15.47444915771484 Z" stroke="none"/>
      <path d="M 14.57438087463379 15.22444915771484 C 14.7478609085083 15.22444915771484 14.9109001159668 15.15687942504883 15.03384017944336 15.03382968902588 C 15.15676021575928 14.91104984283447 15.22445011138916 14.74777984619141 15.22445011138916 14.57409954071045 C 15.22445011138916 14.40042972564697 15.15676021575928 14.23716926574707 15.03364086151123 14.1141996383667 L 9.341930389404297 8.42271900177002 L 8.988370895385742 8.069169044494629 L 9.341920852661133 7.715609550476074 L 15.03384017944336 2.023479461669922 C 15.15676021575928 1.900699377059937 15.22445011138916 1.737609386444092 15.22445011138916 1.564269423484802 C 15.22445011138916 1.390939474105835 15.15676021575928 1.227859377861023 15.03346061706543 1.104699373245239 C 14.9109001159668 0.9820194244384766 14.7478609085083 0.9144494533538818 14.57438087463379 0.9144494533538818 C 14.40070056915283 0.9144494533538818 14.23727035522461 0.9821494221687317 14.11439037322998 1.104889392852783 L 8.422640800476074 6.796399593353271 L 8.069090843200684 7.149929523468018 L 7.715540409088135 6.796399593353271 L 2.023610591888428 1.104709386825562 C 1.901040554046631 0.9820194244384766 1.737870573997498 0.9144494533538818 1.564160585403442 0.9144494533538818 C 1.390450596809387 0.9144494533538818 1.227290511131287 0.9820194244384766 1.104720592498779 1.104709386825562 C 0.8515605330467224 1.358109474182129 0.8515605330467224 1.770439386367798 1.10455060005188 2.023679494857788 L 6.796260356903076 7.715609550476074 L 7.149810314178467 8.069169044494629 L 6.796250343322754 8.42271900177002 L 1.104720592498779 14.1140193939209 C 0.8512705564498901 14.36770915985107 0.8512805700302124 14.78049945831299 1.104720592498779 15.03419971466064 C 1.227280497550964 15.15687942504883 1.390450596809387 15.22444915771484 1.564160585403442 15.22444915771484 C 1.73788058757782 15.22444915771484 1.901050567626953 15.15687942504883 2.023780584335327 15.03402900695801 L 7.715530395507813 9.342059135437012 L 8.069090843200684 8.988489151000977 L 8.422650337219238 9.342059135437012 L 14.11419010162354 15.0338191986084 C 14.23726081848145 15.1567497253418 14.40069007873535 15.22444915771484 14.57438087463379 15.22444915771484 M 14.57438087463379 15.72444915771484 C 14.28009033203125 15.72444915771484 13.98568058013916 15.61215972900391 13.76084041595459 15.3875789642334 L 8.069090843200684 9.695609092712402 L 2.37734055519104 15.3875789642334 C 2.15298056602478 15.61215972900391 1.858570575714111 15.72444915771484 1.564161777496338 15.72444915771484 C 1.269753098487854 15.72444915771484 0.9753455519676208 15.61215972900391 0.7509905695915222 15.3875789642334 C 0.3022705316543579 14.93840980529785 0.3022705316543579 14.20979976654053 0.7509905695915222 13.76063919067383 L 6.442700386047363 8.069159507751465 L 0.7509905695915222 2.377229452133179 C 0.3022705316543579 1.928059458732605 0.3022705316543579 1.200489401817322 0.7509905695915222 0.7513294219970703 C 0.9753455519676208 0.5267444252967834 1.269753098487854 0.41445192694664 1.564161777496338 0.41445192694664 C 1.858570575714111 0.41445192694664 2.15298056602478 0.5267444252967834 2.37734055519104 0.7513294219970703 L 8.069090843200684 6.442839622497559 L 13.76084041595459 0.7513294219970703 C 13.98568058013916 0.5267444252967834 14.28009033203125 0.41445192694664 14.57437896728516 0.41445192694664 C 14.86866760253906 0.41445192694664 15.16283512115479 0.5267444252967834 15.38719081878662 0.7513294219970703 C 15.83687019348145 1.200489401817322 15.83687019348145 1.928059458732605 15.38719081878662 2.377229452133179 L 9.695480346679688 8.069159507751465 L 15.38719081878662 13.76063919067383 C 15.83687019348145 14.20979976654053 15.83687019348145 14.93840980529785 15.38719081878662 15.3875789642334 C 15.1628303527832 15.61215972900391 14.86867046356201 15.72444915771484 14.57438087463379 15.72444915771484 Z" stroke="none" fill="#fff"/>
    </g>
  </g>
</svg>
