<svg width="12" height="15" viewBox="0 0 12 15" xmlns="http://www.w3.org/2000/svg"><g fill="none" fill-rule="evenodd"><path d="m254.12 53.617c.029 1.01.101 2.382.15 2.68.025.152.156.263.31.263l.672.021c.154 0 .175-.111.199-.264.049-.304.122-1.692.151-2.697 1-.029 2.392-.102 2.697-.151.153-.024.264-.045.264-.199l-.021-.672c0-.154-.111-.285-.263-.31-.298-.049-1.669-.121-2.68-.15-.031-.986-.102-2.312-.149-2.615-.024-.153-.044-.266-.2-.266l-.669-.021c-.155 0-.286.112-.31.264-.048.299-.119 1.641-.149 2.64-.998.03-2.34.102-2.64.149-.153.024-.264.156-.264.31l.021.669c0 .155.113.176.266.2.303.047 1.629.118 2.615.149m5.765 6.383h-9.621c-.413 0-.765-.267-.831-.633-.166-.913-.435-4.701-.435-6.867 0-2.104.273-5.932.438-6.864.065-.367.418-.636.832-.636h9.613c.416 0 .471.271.535.64.165.956.442 4.835.442 6.86 0 2.113-.272 5.935-.438 6.865-.065.367-.12.635-.534.635" transform="translate(-249-45)" fill="#fff"/></g></svg>