<svg xmlns="http://www.w3.org/2000/svg" width="33" height="33" viewBox="0 0 33 33">
  <path id="Path_2" data-name="Path 2" d="M61.068,69.933,59.589,69A10.832,10.832,0,0,0,47.84,69L45.834,70.27,43.826,69a10.832,10.832,0,0,0-11.749,0l-1.476.936a3,3,0,0,0-1.266,2.552V96.125a3.061,3.061,0,0,0,1.123,2.454,1.974,1.974,0,0,0,2.293.1,9.591,9.591,0,0,1,10.4,0l2.344,1.487.027.015.036.019c.018.009.037.017.055.024l.035.013a.609.609,0,0,0,.062.016l.03.007a.568.568,0,0,0,.187,0l.03-.007a.6.6,0,0,0,.062-.016l.035-.013c.019-.007.037-.015.055-.024l.035-.019.027-.015,2.341-1.485a9.591,9.591,0,0,1,10.4,0,1.974,1.974,0,0,0,2.295-.1,3.06,3.06,0,0,0,1.125-2.455V72.486a3,3,0,0,0-1.267-2.552ZM37.954,95.34a11.022,11.022,0,0,0-5.877,1.732.733.733,0,0,1-.852-.036,1.136,1.136,0,0,1-.418-.911V72.486a1.112,1.112,0,0,1,.47-.947l1.473-.934a9.591,9.591,0,0,1,10.4,0L45.1,71.836V97.877l-1.272-.807a11.012,11.012,0,0,0-5.872-1.73Zm22.908.785a1.136,1.136,0,0,1-.419.912.733.733,0,0,1-.853.033,10.832,10.832,0,0,0-11.749,0l-1.269.805V71.836L48.514,70.6a9.592,9.592,0,0,1,10.4,0l1.476.936a1.112,1.112,0,0,1,.47.947Z" transform="translate(-29.334 -67.265)" fill="#fff"/>
</svg>
