<svg xmlns="http://www.w3.org/2000/svg" xmlns:xlink="http://www.w3.org/1999/xlink" width="23.05" height="20.851" viewBox="0 0 23.05 20.851">
  <defs>
    <clipPath id="clip-path">
      <rect width="23.05" height="20.851" fill="none"/>
    </clipPath>
  </defs>
  <g id="timeline" clip-path="url(#clip-path)">
    <path id="Path_111" data-name="Path 111" d="M272,745.4c2.478-.141,15.933-.565,17.727,0,2.794.574,3.372,3.2,3.083,3.526.289,3.608-3.179,4.1-8.478,4.346-1.121.049-2.411.006-3.757,0-.922,0-1.9.034-2.89,0-7.418.082-6.774,6.055-3.468,7.463,3,1.279,13.1.328,17.438.41" transform="translate(-270.95 -742.601)" fill="none" stroke="#fff" stroke-width="1.3"/>
    <g id="Ellipse_34" data-name="Ellipse 34" fill="#707070" stroke="#707070" stroke-width="1.3">
      <circle cx="2.5" cy="2.5" r="2.5" stroke="none"/>
      <circle cx="2.5" cy="2.5" r="1.85" fill="none"/>
    </g>
    <g id="Path_112" data-name="Path 112" transform="translate(13.326)" fill="#fff">
      <path d="M 2.5 4.349999904632568 C 1.479910016059875 4.349999904632568 0.6499999761581421 3.520090103149414 0.6499999761581421 2.5 C 0.6499999761581421 1.479910016059875 1.479910016059875 0.6499999761581421 2.5 0.6499999761581421 C 3.520090103149414 0.6499999761581421 4.349999904632568 1.479910016059875 4.349999904632568 2.5 C 4.349999904632568 3.520090103149414 3.520090103149414 4.349999904632568 2.5 4.349999904632568 Z" stroke="none"/>
      <path d="M 2.5 1.299999952316284 C 1.838320016860962 1.299999952316284 1.299999952316284 1.838320016860962 1.299999952316284 2.5 C 1.299999952316284 3.161679983139038 1.838320016860962 3.700000047683716 2.5 3.700000047683716 C 3.161679983139038 3.700000047683716 3.700000047683716 3.161679983139038 3.700000047683716 2.5 C 3.700000047683716 1.838320016860962 3.161679983139038 1.299999952316284 2.5 1.299999952316284 M 2.5 0 C 3.880710124969482 0 5 1.119290113449097 5 2.5 C 5 3.880710124969482 3.880710124969482 5 2.5 5 C 1.119290113449097 5 0 3.880710124969482 0 2.5 C 0 1.119290113449097 1.119290113449097 0 2.5 0 Z" stroke="none" fill="#fff"/>
    </g>
    <g id="Path_113" data-name="Path 113" transform="translate(12.326 7.699)" fill="#fff">
      <path d="M 2.5 4.349999904632568 C 1.479910016059875 4.349999904632568 0.6499999761581421 3.520090103149414 0.6499999761581421 2.5 C 0.6499999761581421 1.479910016059875 1.479910016059875 0.6499999761581421 2.5 0.6499999761581421 C 3.520090103149414 0.6499999761581421 4.349999904632568 1.479910016059875 4.349999904632568 2.5 C 4.349999904632568 3.520090103149414 3.520090103149414 4.349999904632568 2.5 4.349999904632568 Z" stroke="none"/>
      <path d="M 2.5 1.299999952316284 C 1.838320016860962 1.299999952316284 1.299999952316284 1.838320016860962 1.299999952316284 2.5 C 1.299999952316284 3.161679983139038 1.838320016860962 3.700000047683716 2.5 3.700000047683716 C 3.161679983139038 3.700000047683716 3.700000047683716 3.161679983139038 3.700000047683716 2.5 C 3.700000047683716 1.838320016860962 3.161679983139038 1.299999952316284 2.5 1.299999952316284 M 2.5 0 C 3.880710124969482 0 5 1.119290113449097 5 2.5 C 5 3.880710124969482 3.880710124969482 5 2.5 5 C 1.119290113449097 5 0 3.880710124969482 0 2.5 C 0 1.119290113449097 1.119290113449097 0 2.5 0 Z" stroke="none" fill="#fff"/>
    </g>
    <g id="Path_114" data-name="Path 114" transform="translate(4.671 15.851)" fill="#fff">
      <path d="M 2.5 4.349999904632568 C 1.479910016059875 4.349999904632568 0.6499999761581421 3.520090103149414 0.6499999761581421 2.5 C 0.6499999761581421 1.479910016059875 1.479910016059875 0.6499999761581421 2.5 0.6499999761581421 C 3.520090103149414 0.6499999761581421 4.349999904632568 1.479910016059875 4.349999904632568 2.5 C 4.349999904632568 3.520090103149414 3.520090103149414 4.349999904632568 2.5 4.349999904632568 Z" stroke="none"/>
      <path d="M 2.5 1.299999952316284 C 1.838320016860962 1.299999952316284 1.299999952316284 1.838320016860962 1.299999952316284 2.5 C 1.299999952316284 3.161679983139038 1.838320016860962 3.700000047683716 2.5 3.700000047683716 C 3.161679983139038 3.700000047683716 3.700000047683716 3.161679983139038 3.700000047683716 2.5 C 3.700000047683716 1.838320016860962 3.161679983139038 1.299999952316284 2.5 1.299999952316284 M 2.5 0 C 3.880710124969482 0 5 1.119290113449097 5 2.5 C 5 3.880710124969482 3.880710124969482 5 2.5 5 C 1.119290113449097 5 0 3.880710124969482 0 2.5 C 0 1.119290113449097 1.119290113449097 0 2.5 0 Z" stroke="none" fill="#fff"/>
    </g>
    <g id="Path_115" data-name="Path 115" transform="translate(11.843 15.851)" fill="#fff">
      <path d="M 2.5 4.349999904632568 C 1.479910016059875 4.349999904632568 0.6499999761581421 3.520090103149414 0.6499999761581421 2.5 C 0.6499999761581421 1.479910016059875 1.479910016059875 0.6499999761581421 2.5 0.6499999761581421 C 3.520090103149414 0.6499999761581421 4.349999904632568 1.479910016059875 4.349999904632568 2.5 C 4.349999904632568 3.520090103149414 3.520090103149414 4.349999904632568 2.5 4.349999904632568 Z" stroke="none"/>
      <path d="M 2.5 1.299999952316284 C 1.838320016860962 1.299999952316284 1.299999952316284 1.838320016860962 1.299999952316284 2.5 C 1.299999952316284 3.161679983139038 1.838320016860962 3.700000047683716 2.5 3.700000047683716 C 3.161679983139038 3.700000047683716 3.700000047683716 3.161679983139038 3.700000047683716 2.5 C 3.700000047683716 1.838320016860962 3.161679983139038 1.299999952316284 2.5 1.299999952316284 M 2.5 0 C 3.880710124969482 0 5 1.119290113449097 5 2.5 C 5 3.880710124969482 3.880710124969482 5 2.5 5 C 1.119290113449097 5 0 3.880710124969482 0 2.5 C 0 1.119290113449097 1.119290113449097 0 2.5 0 Z" stroke="none" fill="#fff"/>
    </g>
    <g id="Path_116" data-name="Path 116" transform="translate(18.05 15.851)" fill="#707070">
      <path d="M 2.5 4.349999904632568 C 1.479910016059875 4.349999904632568 0.6499999761581421 3.520090103149414 0.6499999761581421 2.5 C 0.6499999761581421 1.479910016059875 1.479910016059875 0.6499999761581421 2.5 0.6499999761581421 C 3.520090103149414 0.6499999761581421 4.349999904632568 1.479910016059875 4.349999904632568 2.5 C 4.349999904632568 3.520090103149414 3.520090103149414 4.349999904632568 2.5 4.349999904632568 Z" stroke="none"/>
      <path d="M 2.5 1.299999952316284 C 1.838320016860962 1.299999952316284 1.299999952316284 1.838320016860962 1.299999952316284 2.5 C 1.299999952316284 3.161679983139038 1.838320016860962 3.700000047683716 2.5 3.700000047683716 C 3.161679983139038 3.700000047683716 3.700000047683716 3.161679983139038 3.700000047683716 2.5 C 3.700000047683716 1.838320016860962 3.161679983139038 1.299999952316284 2.5 1.299999952316284 M 2.5 0 C 3.880710124969482 0 5 1.119290113449097 5 2.5 C 5 3.880710124969482 3.880710124969482 5 2.5 5 C 1.119290113449097 5 0 3.880710124969482 0 2.5 C 0 1.119290113449097 1.119290113449097 0 2.5 0 Z" stroke="none" fill="#707070"/>
    </g>
    <g id="Ellipse_35" data-name="Ellipse 35" transform="translate(6.154)" fill="#fff" stroke="#fff" stroke-width="1.3">
      <circle cx="2.5" cy="2.5" r="2.5" stroke="none"/>
      <circle cx="2.5" cy="2.5" r="1.85" fill="none"/>
    </g>
    <g id="Ellipse_36" data-name="Ellipse 36" transform="translate(4.671 7.699)" fill="#fff" stroke="#fff" stroke-width="1.3">
      <circle cx="2.5" cy="2.5" r="2.5" stroke="none"/>
      <circle cx="2.5" cy="2.5" r="1.85" fill="none"/>
    </g>
  </g>
</svg>
