<svg xmlns="http://www.w3.org/2000/svg" xmlns:xlink="http://www.w3.org/1999/xlink" width="25" height="25" viewBox="0 0 25 25">
  <defs>
    <clipPath id="clip-path">
      <rect width="25" height="25" fill="none"/>
    </clipPath>
  </defs>
  <g id="twitter-square" clip-path="url(#clip-path)">
    <path id="twitter-square-2" data-name="twitter-square" d="M22.321,32H2.679A2.679,2.679,0,0,0,0,34.679V54.321A2.679,2.679,0,0,0,2.679,57H22.321A2.679,2.679,0,0,0,25,54.321V34.679A2.679,2.679,0,0,0,22.321,32Zm-2.729,8.862c.011.156.011.318.011.474A10.342,10.342,0,0,1,9.191,51.749a10.365,10.365,0,0,1-5.619-1.641,7.71,7.71,0,0,0,.882.045A7.338,7.338,0,0,0,9,48.59a3.665,3.665,0,0,1-3.421-2.539,3.944,3.944,0,0,0,1.652-.067A3.66,3.66,0,0,1,4.3,42.391v-.045a3.657,3.657,0,0,0,1.652.463,3.652,3.652,0,0,1-1.629-3.047,3.614,3.614,0,0,1,.5-1.847,10.392,10.392,0,0,0,7.545,3.828A3.668,3.668,0,0,1,18.6,38.4a7.172,7.172,0,0,0,2.321-.882,3.65,3.65,0,0,1-1.607,2.015,7.283,7.283,0,0,0,2.109-.569A7.7,7.7,0,0,1,19.593,40.862Z" transform="translate(0 -32)" fill="#fff"/>
  </g>
</svg>
